{
  "accessors": [
    {
      "bufferView": 2,
      "componentType": 5126,
      "count": 6928,
      "max": [
        4.891491413116455,
        3.579324722290039,
        4.690374851226807
      ],
      "min": [
        -4.316294193267822,
        -3.7618837356567383,
        -4.690374851226807
      ],
      "type": "VEC3"
    },
    {
      "bufferView": 2,
      "byteOffset": 83136,
      "componentType": 5126,
      "count": 6928,
      "max": [
        1.0,
        1.0,
        1.0
      ],
      "min": [
        -1.0,
        -1.0,
        -1.0
      ],
      "type": "VEC3"
    },
    {
      "bufferView": 3,
      "componentType": 5126,
      "count": 6928,
      "max": [
        1.0,
        1.0,
        1.0,
        1.0
      ],
      "min": [
        -1.0,
        -1.0,
        -1.0,
        -1.0
      ],
      "type": "VEC4"
    },
    {
      "bufferView": 1,
      "componentType": 5126,
      "count": 6928,
      "max": [
        0.9743139147758484,
        0.9810982942581177
      ],
      "min": [
        0.0012551381951197982,
        0.021382242441177368
      ],
      "type": "VEC2"
    },
    {
      "bufferView": 1,
      "byteOffset": 55424,
      "componentType": 5126,
      "count": 6928,
      "max": [
        0.9952914714813232,
        1.0
      ],
      "min": [
        0.0,
        -0.0057865530252456665
      ],
      "type": "VEC2"
    },
    {
      "bufferView": 1,
      "byteOffset": 110848,
      "componentType": 5126,
      "count": 6928,
      "max": [
        0.9952914714813232,
        1.0
      ],
      "min": [
        0.0,
        -0.0057865530252456665
      ],
      "type": "VEC2"
    },
    {
      "bufferView": 1,
      "byteOffset": 166272,
      "componentType": 5126,
      "count": 6928,
      "max": [
        0.9952914714813232,
        1.0
      ],
      "min": [
        0.0,
        -0.0057865530252456665
      ],
      "type": "VEC2"
    },
    {
      "bufferView": 1,
      "byteOffset": 221696,
      "componentType": 5126,
      "count": 6928,
      "max": [
        0.9952914714813232,
        1.0
      ],
      "min": [
        0.0,
        -0.0057865530252456665
      ],
      "type": "VEC2"
    },
    {
      "bufferView": 1,
      "byteOffset": 277120,
      "componentType": 5126,
      "count": 6928,
      "max": [
        0.9952914714813232,
        1.0
      ],
      "min": [
        0.0,
        -0.0057865530252456665
      ],
      "type": "VEC2"
    },
    {
      "bufferView": 0,
      "componentType": 5125,
      "count": 15387,
      "type": "SCALAR"
    }
  ],
  "asset": {
    "extras": {
      "author": "MisterH (https://sketchfab.com/TGVMisterH)",
      "license": "CC-BY-4.0 (http://creativecommons.org/licenses/by/4.0/)",
      "source": "https://sketchfab.com/3d-models/low-poly-space-station-5b153e559fff44728e6749aab9717a7b",
      "title": "Low Poly space station."
    },
    "generator": "Sketchfab-14.48.0",
    "version": "2.0"
  },
  "bufferViews": [
    {
      "buffer": 0,
      "byteLength": 61548,
      "name": "floatBufferViews",
      "target": 34963
    },
    {
      "buffer": 0,
      "byteLength": 332544,
      "byteOffset": 61548,
      "byteStride": 8,
      "name": "floatBufferViews",
      "target": 34962
    },
    {
      "buffer": 0,
      "byteLength": 166272,
      "byteOffset": 394092,
      "byteStride": 12,
      "name": "floatBufferViews",
      "target": 34962
    },
    {
      "buffer": 0,
      "byteLength": 110848,
      "byteOffset": 560364,
      "byteStride": 16,
      "name": "floatBufferViews",
      "target": 34962
    }
  ],
  "buffers": [
    {
      "byteLength": 671212,
      "uri": "scene.bin"
    }
  ],
  "images": [
    {
      "uri": "textures/Space_Station_Mat2K_baseColor.png"
    },
    {
      "uri": "textures/Space_Station_Mat2K_metallicRoughness.png"
    },
    {
      "uri": "textures/Space_Station_Mat2K_emissive.png"
    },
    {
      "uri": "textures/Space_Station_Mat2K_normal.png"
    }
  ],
  "materials": [
    {
      "doubleSided": true,
      "emissiveFactor": [
        1.0,
        1.0,
        1.0
      ],
      "emissiveTexture": {
        "index": 2
      },
      "name": "Space_Station_Mat2K",
      "normalTexture": {
        "index": 3
      },
      "pbrMetallicRoughness": {
        "baseColorTexture": {
          "index": 0
        },
        "metallicRoughnessTexture": {
          "index": 1
        }
      }
    }
  ],
  "meshes": [
    {
      "name": "Object_0",
      "primitives": [
        {
          "attributes": {
            "NORMAL": 1,
            "POSITION": 0,
            "TANGENT": 2,
            "TEXCOORD_0": 3,
            "TEXCOORD_1": 4,
            "TEXCOORD_2": 5,
            "TEXCOORD_3": 6,
            "TEXCOORD_4": 7,
            "TEXCOORD_5": 8
          },
          "indices": 9,
          "material": 0,
          "mode": 4
        }
      ]
    }
  ],
  "nodes": [
    {
      "children": [
        1
      ],
      "matrix": [
        1.0,
        0.0,
        0.0,
        0.0,
        0.0,
        2.220446049250313e-16,
        -1.0,
        0.0,
        0.0,
        1.0,
        2.220446049250313e-16,
        0.0,
        0.0,
        0.0,
        0.0,
        1.0
      ],
      "name": "Sketchfab_model"
    },
    {
      "children": [
        2
      ],
      "name": "root"
    },
    {
      "children": [
        3
      ],
      "matrix": [
        1.0,
        0.0,
        0.0,
        0.0,
        0.0,
        2.220446049250313e-16,
        1.0,
        0.0,
        0.0,
        -1.0,
        2.220446049250313e-16,
        0.0,
        0.0,
        0.0,
        0.0,
        1.0
      ],
      "name": "GLTF_SceneRootNode"
    },
    {
      "children": [
        4
      ],
      "name": "Space_Station_0"
    },
    {
      "mesh": 0,
      "name": "Object_4"
    }
  ],
  "samplers": [
    {
      "magFilter": 9729,
      "minFilter": 9987,
      "wrapS": 10497,
      "wrapT": 10497
    }
  ],
  "scene": 0,
  "scenes": [
    {
      "name": "Sketchfab_Scene",
      "nodes": [
        0
      ]
    }
  ],
  "textures": [
    {
      "sampler": 0,
      "source": 0
    },
    {
      "sampler": 0,
      "source": 1
    },
    {
      "sampler": 0,
      "source": 2
    },
    {
      "sampler": 0,
      "source": 3
    }
  ]
}
